# xmcd
#
# Track frame offsets: 
#        150
#        37087
#        70312
#        101137
#        119662
#        150862
#        169312
#        183787
#        214312
#
# Disc length: 3106 seconds
#
# Revision: 7
# Processed by: cddbd v1.5.2PL0 Copyright (c) Steve Scherf et al.
# Submitted via: ExactAudioCopy v0.95a5
#
DISCID=7f0c2009
DTITLE=Clifford Brown And Max Roach - Clifford Brown And Max Roach
DYEAR=1955
DGENRE=Jazz
TTITLE0=Delilah
TTITLE1=Pariaian Thoroughfare
TTITLE2=The Blues Walk
TTITLE3=Daahoud
TTITLE4=Joy Spring
TTITLE5=Jordu (Edited Version)
TTITLE6=What Am I Here For
TTITLE7=Joy Spring (Alternate Take)
TTITLE8=Daahoud (Alternative Take)
EXTD=YEAR: 1955
EXTT0=
EXTT1=
EXTT2=
EXTT3=
EXTT4=
EXTT5=
EXTT6=
EXTT7=
EXTT8=
PLAYORDER=
